<?xml version="1.0" standalone="no"?>
<!DOCTYPE svg PUBLIC "-//W3C//DTD SVG 1.1//EN" "http://www.w3.org/Graphics/SVG/1.1/DTD/svg11.dtd">
<svg width="190mm" height="140mm" viewBox="-95 -70 190 140" xmlns="http://www.w3.org/2000/svg" version="1.1">
<title>OpenSCAD Model</title>
<path d="
M -15,5 L -14.6194,3.08659 L -13.5355,1.46448 L -11.9134,0.380615 L -10,-0 L 10,-0
 L 11.9134,0.380615 L 13.5355,1.46448 L 14.6194,3.08659 L 15,5 L 15,69.25 L 89.25,69.25
 L 91.1634,68.8694 L 92.7855,67.7855 L 93.8694,66.1634 L 94.25,64.25 L 94.25,-64.25 L 93.8694,-66.1634
 L 92.7855,-67.7855 L 91.1634,-68.8694 L 89.25,-69.25 L -89.25,-69.25 L -91.1634,-68.8694 L -92.7855,-67.7855
 L -93.8694,-66.1634 L -94.25,-64.25 L -94.25,64.25 L -93.8694,66.1634 L -92.7855,67.7855 L -91.1634,68.8694
 L -89.25,69.25 L -15,69.25 z
M -2.73222,51.7678 L -2,50 L -1.99998,20 L -2.73221,18.2322 L -4.49998,17.5 L -9.49998,17.5
 L -11.2677,18.2322 L -12,20 L -12,50 L -11.2678,51.7678 L -9.5,52.5 L -4.5,52.5
 z
M 11.2678,51.7678 L 12,50 L 12,20 L 11.2678,18.2322 L 9.5,17.5 L 4.5,17.5
 L 2.73224,18.2322 L 2,20 L 1.99998,50 L 2.73222,51.7678 L 4.49998,52.5 L 9.49998,52.5
 z
" stroke="black" fill="lightgray" stroke-width="0.5"/>
</svg>
